<svg xmlns="http://www.w3.org/2000/svg" aria-hidden="true" style="position:absolute;width:0;height:0;overflow:hidden">
  <defs>
    <symbol id="icon-review-arrow-left" viewBox="0 0 32 32">
      <path fill="#fff" d="M1.179 15.586a.826.826 0 0 0 0 1.167l5.25 5.25a.826.826 0 0 0 1.167-1.167l-4.667-4.667 4.667-4.667a.826.826 0 0 0-1.167-1.167l-5.25 5.25zm30.282-.241H1.763v1.65h29.698v-1.65z" style="fill:var(--color1, #fff)"/>
    </symbol>
    <symbol id="icon-review-arrow-right" viewBox="0 0 32 32">
      <path fill="#fff" d="M30.821 15.586a.826.826 0 0 1 0 1.167l-5.25 5.25a.826.826 0 0 1-1.167-1.167l4.666-4.667-4.666-4.667a.826.826 0 0 1 1.167-1.167l5.25 5.25zM.539 15.345h29.698v1.65H.539v-1.65z" style="fill:var(--color1, #fff)"/>
    </symbol>
    <symbol id="icon-quiz-arrow-left" viewBox="0 0 32 32">
      <path fill="none" stroke="#fff" stroke-width="1.6" d="M32 16H1.6m0 0 12 12m-12-12 12-12" style="stroke:var(--color1, #fff)"/>
    </symbol>
    <symbol id="icon-quiz-arrow-right" viewBox="0 0 32 32">
      <path fill="none" stroke="#fff" stroke-width="1.6" d="M0 16h30.4m0 0-12-12m12 12-12 12" style="stroke:var(--color1, #fff)"/>
    </symbol>
    <symbol id="icon-intrenational-client" viewBox="0 0 32 32">
      <path fill="none" stroke="#fff" stroke-linecap="round" stroke-linejoin="round" stroke-miterlimit="10" stroke-width="1.215" d="M6.521 7.142a3.105 3.105 0 1 1 0-6.21h6.831a2.484 2.484 0 0 1 2.484 2.484v3.726M8.695 15.337v3.295a2.174 2.174 0 0 0 4.348 0v-3.295M17.079 30.866v-6.335M4.658 30.866v-6.335" style="stroke:var(--color1, #fff)"/>
      <path fill="none" stroke="#fff" stroke-linecap="round" stroke-linejoin="round" stroke-miterlimit="10" stroke-width="1.215" d="M15.836 7.142a4.024 4.024 0 0 1-3.595-2.222l-.131-.262a6.223 6.223 0 0 1-4.968 2.485H5.9v3.726a4.969 4.969 0 1 0 9.938-.001l-.001-3.725zM28.36 25.277a4.337 4.337 0 1 1-8.675 0 4.337 4.337 0 0 1 8.675 0zM13.042 17.7h3.416a4.346 4.346 0 0 1 4.344 4.227M8.695 17.7H5.279a4.347 4.347 0 0 0-4.347 4.347v8.819h19.873v-2.235" style="stroke:var(--color1, #fff)"/>
      <path fill="none" stroke="#fff" stroke-linecap="round" stroke-linejoin="round" stroke-miterlimit="10" stroke-width="1.215" d="M25.469 25.277c0 2.395-.647 4.337-1.446 4.337s-1.446-1.942-1.446-4.337c0-2.395.647-4.337 1.446-4.337s1.446 1.942 1.446 4.337zM28.36 25.277h-8.673" style="stroke:var(--color1, #fff)"/>
    </symbol>
    <symbol id="icon-event-organizer" viewBox="0 0 32 32">
      <path fill="#fff" d="m23.763 19.668.418-7.043a2.419 2.419 0 0 0 .862-1.842v-.348a2.08 2.08 0 0 0-.692-1.541C24.24 4.531 22.007.001 16 .001s-8.24 4.53-8.351 8.893a2.067 2.067 0 0 0-.692 1.541v.348a2.412 2.412 0 0 0 .862 1.842l.418 7.043a6.263 6.263 0 0 0-4.758 6.071v4.174A2.092 2.092 0 0 0 5.566 32h20.87a2.092 2.092 0 0 0 2.087-2.087v-4.174a6.268 6.268 0 0 0-4.758-6.071zm-1.383-.183c-.04-.001-.079-.006-.12-.006h-2.783v-2.45a6.272 6.272 0 0 0 2.621-3.811h.509c.049 0 .096-.012.145-.015l-.374 6.282zm-2.785 5.249 1.053 1.579-3.434 3.005 2.111-8.449h1.113l.925 1.849-1.576 1.05a.702.702 0 0 0-.296.714.719.719 0 0 0 .104.251zm-7.383-.965-1.576-1.05.926-1.849h1.113l2.112 8.449-3.434-3.005 1.053-1.579a.693.693 0 0 0-.193-.965zM8.348 10.783v-.348a.7.7 0 0 1 .696-.696h.696v2.087h-.348a1.047 1.047 0 0 1-1.043-1.043zm2.782 1.043V9.68c2.065-.341 3.957-2.092 4.86-3.053a9.072 9.072 0 0 0 4.879 3.028v2.17a4.87 4.87 0 0 1-9.738 0zm11.826-2.087a.7.7 0 0 1 .696.696v.348a1.047 1.047 0 0 1-1.043 1.043h-.348V9.739h.696zM16 18.087a6.216 6.216 0 0 0 2.087-.365v2.367l-.671 2.683a6.567 6.567 0 0 1-1.416.185 6.499 6.499 0 0 1-1.416-.186l-.671-2.682v-2.367c.67.24 1.376.364 2.087.365zm1.043 6.175L16 28.436l-1.043-4.174a6.356 6.356 0 0 0 2.087 0zM16 1.391c2.003 0 6.532.713 6.931 6.957H21.57c-.102-.001-2.517-.079-5.027-3.217a.685.685 0 0 0-.543-.26.697.697 0 0 0-.543.26c-.026.033-2.611 3.218-5.023 3.218H9.068c.399-6.243 4.929-6.957 6.931-6.957zM9.246 13.203c.049.003.095.015.145.015H9.9a6.276 6.276 0 0 0 2.621 3.811v2.45H9.738c-.04 0-.079.006-.12.006l-.374-6.282zM4.87 29.913v-4.174a4.874 4.874 0 0 1 4.87-4.87h.266l-.888 1.776a.693.693 0 0 0 .237.89l1.508 1.005-1.005 1.508a.694.694 0 0 0 .12.909l4.173 3.651H5.567a.7.7 0 0 1-.696-.696zm22.26 0a.7.7 0 0 1-.696.696h-8.583l4.172-3.651a.695.695 0 0 0 .12-.909l-1.005-1.508 1.508-1.005a.698.698 0 0 0 .237-.89l-.888-1.775h.266a4.874 4.874 0 0 1 4.87 4.87v4.174z" style="fill:var(--color1, #fff)"/>
    </symbol>
    <symbol id="icon-commercial" viewBox="0 0 32 32">
      <path fill="none" stroke="#fff" stroke-miterlimit="10" stroke-width="1.2" d="m16 31.062 4.873-9.809M11.127 21.253 16 31.062M12.25 31.062l-1.875-3.812.752-5.996M19.75 31.062l1.875-3.812-.801-6.021" style="stroke:var(--color1, #fff)"/>
      <path fill="none" stroke="#fff" stroke-miterlimit="10" stroke-width="1.2" d="M7.498 23.169a.647.647 0 0 0 .066-.253c0-.769-1.875-1.744-1.875-2.513 0-.767 1.875-1.742 1.875-2.511s-1.875-1.744-1.875-2.513c0-.51.892-.951.967-2.593C7.039 4.39 11.077.937 16.001.937s8.961 3.453 9.345 11.849c.073 1.618.968 2.094.968 2.593 0 .769-1.875 1.744-1.875 2.513s1.875 1.744 1.875 2.511c0 .769-1.875 1.744-1.875 2.513 0 .079.024.165.064.253" style="stroke:var(--color1, #fff)"/>
      <path fill="none" stroke="#fff" stroke-miterlimit="10" stroke-width="1.2" d="M27.25 31.062H4.75l1.462-5.894a3.73 3.73 0 0 1 1.969-2.437l5.944-2.981v-1.256a5.607 5.607 0 0 1-3.75-5.306v-.938c3.75 0 9.375-3.75 9.375-3.75l1.875 2.625v2.062a5.606 5.606 0 0 1-3.75 5.306v1.256l5.944 2.981a3.733 3.733 0 0 1 1.969 2.437l1.463 5.894z" style="stroke:var(--color1, #fff)"/>
    </symbol>
    <symbol id="icon-homeowner" viewBox="0 0 32 32">
      <path fill="#fff" d="M31.165 31.781H.836a.622.622 0 0 1-.576-.395.608.608 0 0 1-.041-.242c.014-.422.089-2.55.165-2.974.132-.725.354-1.668.91-2.54.431-.674.967-1.156 1.642-1.471.734-.342 1.62-.616 2.477-.886s1.735-.541 2.415-.867c.392-.188.784-.375 1.176-.56l.451-.214c.023-.012.046-.022.078-.036.487-.205.942-.48 1.349-.816.833-.698 1.256-1.541 1.256-2.501a.617.617 0 0 1 1.234 0c0 1.325-.588 2.517-1.698 3.447-.5.413-1.057.751-1.655 1.004l-.024.01h-.004l-1.632.774c-.761.366-1.687.655-2.582.934-.819.255-1.664.518-2.322.826-.456.213-.824.546-1.124 1.017-.344.539-.571 1.186-.737 2.096-.033.185-.084 1.152-.123 2.157h29.054c-.039-1.007-.09-1.973-.123-2.157a7.756 7.756 0 0 0-.279-1.124.616.616 0 0 1 1.165-.391c.14.425.249.859.325 1.3.076.425.151 2.553.165 2.975a.608.608 0 0 1-.172.449.613.613 0 0 1-.442.189zm-11.31-10.87a.62.62 0 0 1-.515-.275 4.196 4.196 0 0 1-.712-2.359.617.617 0 0 1 1.234 0 2.98 2.98 0 0 0 .506 1.677.612.612 0 0 1 .03.632.622.622 0 0 1-.542.326zm1.336-8.349h-.021a.612.612 0 0 1-.556-.399.597.597 0 0 1-.039-.237c.023-.689.196-1.329.379-2.007.351-1.298.748-2.768.353-5.291-.185-1.192-.465-2.183-1.168-3.058-.81.493-1.701.396-2.436.316l-.247-.026c-2.582-.252-4.433.37-5.823 1.948-.134.153-.26.29-.382.424-.794.872-1.156 1.271-1.101 2.625.057 1.407.487 3.826 1.147 4.711a.613.613 0 0 1 .062.703.625.625 0 0 1-.39.292.614.614 0 0 1-.658-.258C9.3 10.949 8.96 7.877 8.922 6.907c-.076-1.86.584-2.586 1.418-3.504l.37-.409c1.649-1.878 3.895-2.65 6.866-2.36l.26.027c.732.08 1.363.148 1.856-.286a.617.617 0 0 1 .407-.154h.216a.618.618 0 0 1 .447.191c1.192 1.25 1.552 2.674 1.763 4.027.435 2.781-.017 4.457-.381 5.803-.171.633-.319 1.18-.337 1.726a.617.617 0 0 1-.615.596z" style="fill:var(--color1, #fff)"/>
      <path fill="#fff" d="M19.246 18.894a.612.612 0 0 1-.576-.394.612.612 0 0 1 .16-.679l.215-.194c.732-.66 1.423-1.283 1.639-2.106a5.775 5.775 0 0 1 1.222-2.357c.595-.71.582-1.026.563-1.106-.033-.141-.222-.26-.37-.335a2.684 2.684 0 0 0-.198.277 4.957 4.957 0 0 1-.218.317.618.618 0 0 1-1.11-.367v-.465c0-1.26-.004-2.348-.35-3.374-.316-.939-.686-1.034-1.26-.883-1.164.308-4.612.422-5.955-.009-.425-.136-.87-.179-1.23.891-.346 1.026-.348 2.113-.35 3.371v.465a.618.618 0 0 1-.789.594.615.615 0 0 1-.343-.251c-.075-.102-.141-.203-.2-.292a2.58 2.58 0 0 0-.198-.277c-.029.014-.055.029-.08.043l-.02.011c-.163.097-.255.195-.272.293s0 .419.566 1.094a5.774 5.774 0 0 1 1.222 2.36c.215.822.907 1.446 1.639 2.106l.214.194a.623.623 0 0 1 .165.665.62.62 0 0 1-.551.407.605.605 0 0 1-.444-.16l-.21-.19c-.795-.718-1.697-1.531-2.005-2.709a4.532 4.532 0 0 0-.974-1.879c-.671-.801-.944-1.487-.836-2.101.058-.328.258-.794.886-1.156l.017-.01c.083-.048.169-.091.256-.129a1.218 1.218 0 0 1 .733-.046c.021-.959.099-1.883.406-2.796.678-2.011 2.029-1.911 2.774-1.672 1.088.349 4.281.251 5.264-.009.912-.242 2.129-.146 2.744 1.681.308.912.385 1.836.406 2.794.17-.041.347-.044.518-.01.046.008.085.018.123.028a.566.566 0 0 1 .09.032c.639.286 1.023.697 1.143 1.221.145.632-.123 1.343-.82 2.174a4.518 4.518 0 0 0-.974 1.88c-.308 1.178-1.211 1.991-2.006 2.709l-.21.19a.613.613 0 0 1-.419.158zM16 23.735a.62.62 0 0 1-.417-.162l-3.59-3.292a.615.615 0 0 1 .157-1.014.61.61 0 0 1 .472-.02c.076.028.146.07.206.125l3.173 2.91 3.173-2.91a.614.614 0 0 1 .871.037.614.614 0 0 1-.037.871l-3.59 3.292a.62.62 0 0 1-.417.162z" style="fill:var(--color1, #fff)"/>
      <path fill="#fff" d="M13.834 26.21a.62.62 0 0 1-.442-.185l-3.565-3.667a.607.607 0 0 1-.178-.44.625.625 0 0 1 .187-.437.616.616 0 0 1 .875.017l3.099 3.188 1.726-1.973a.61.61 0 0 1 .423-.21.625.625 0 0 1 .448.151.61.61 0 0 1 .21.423.625.625 0 0 1-.151.448l-2.167 2.476a.615.615 0 0 1-.448.21l-.016-.002z" style="fill:var(--color1, #fff)"/>
      <path fill="#fff" d="M18.232 26.21a.621.621 0 0 1-.458-.203l-2.232-2.476a.617.617 0 1 1 .916-.826l2.232 2.476a.618.618 0 0 1-.122.929.614.614 0 0 1-.336.099z" style="fill:var(--color1, #fff)"/>
      <path fill="#fff" d="M16 26.96a.622.622 0 0 1-.425-.169l-1.541-1.465a.627.627 0 0 1-.2-.434.631.631 0 0 1 .17-.446.63.63 0 0 1 .437-.192.61.61 0 0 1 .443.178l1.094 1.041 1.07-1.123a.611.611 0 0 1 .674-.16.61.61 0 0 1 .346.329.628.628 0 0 1 .008.477.613.613 0 0 1-.134.204l-1.495 1.57a.627.627 0 0 1-.447.191z" style="fill:var(--color1, #fff)"/>
      <path fill="#fff" d="M14.042 31.781a.619.619 0 0 1-.573-.845l1.921-4.82a.628.628 0 0 1 .329-.338.611.611 0 0 1 .674.125.614.614 0 0 1 .142.67l-1.921 4.82a.616.616 0 0 1-.573.388z" style="fill:var(--color1, #fff)"/>
      <path fill="#fff" d="M17.883 31.781a.619.619 0 0 1-.573-.388l-1.921-4.82a.62.62 0 0 1 .142-.67.628.628 0 0 1 .439-.175.611.611 0 0 1 .564.388l1.921 4.82a.62.62 0 0 1-.284.773.604.604 0 0 1-.289.072z" style="fill:var(--color1, #fff)"/>
      <path fill="#fff" d="M24.666 31.781a7.114 7.114 0 1 1 .001-14.23 7.114 7.114 0 0 1-.002 14.231zm0-12.998a5.885 5.885 0 0 0-5.77 7.03 5.882 5.882 0 1 0 5.769-7.031z" style="fill:var(--color1, #fff)"/>
      <path fill="#fff" d="M21.88 28.067a.617.617 0 0 1-.617-.617v-4.951a.617.617 0 0 1 1.233 0v4.951a.62.62 0 0 1-.616.617zm5.571 0a.617.617 0 0 1-.617-.617v-4.951a.617.617 0 0 1 1.234 0v4.951a.617.617 0 0 1-.617.617z" style="fill:var(--color1, #fff)"/>
      <path fill="#fff" d="M30.548 28.067H18.785a.617.617 0 0 1 0-1.234h11.763a.617.617 0 0 1 0 1.234zm-1.86-4.332a.61.61 0 0 1-.322-.091l-3.699-2.277-3.699 2.277a.614.614 0 0 1-.822-.216.62.62 0 0 1 .175-.832l4.023-2.476a.614.614 0 0 1 .646 0l4.02 2.476a.62.62 0 0 1 .271.693.616.616 0 0 1-.594.448v-.003z" style="fill:var(--color1, #fff)"/>
      <path fill="#fff" d="M24.665 28.067a.617.617 0 0 1-.617-.617v-1.857a.617.617 0 0 1 1.234 0v1.857a.617.617 0 0 1-.617.617z" style="fill:var(--color1, #fff)"/>
    </symbol>
    <symbol id="icon-celebrity" viewBox="0 0 32 32">
      <path fill="none" stroke="#fff" stroke-linecap="round" stroke-linejoin="round" stroke-miterlimit="2.613" stroke-width=".978" d="M22.875 15h.937c.859 0 1.563-.703 1.563-1.562s-.703-1.563-1.563-1.563H23.5m-15 0h-.313c-.859 0-1.562.703-1.562 1.563S7.328 15 8.187 15h.938M11.649 6.55c-1.538.396-2.524 1.316-2.524 3.45v5c0 3.781.625 6.875 6.875 6.875s6.875-3.094 6.875-6.875v-5c0-4.768-8.065-2.073-11.226-3.45z" style="stroke:var(--color1, #fff)"/>
      <path fill="none" stroke="#fff" stroke-linecap="round" stroke-linejoin="round" stroke-miterlimit="2.613" stroke-width=".978" d="M25.059 12.483C26.1 4.268 24.146.625 16.27.625c-2.35 0-6.104.476-6.814 3.126 0 0-4.263.664-2.217 8.417" style="stroke:var(--color1, #fff)"/>
      <path fill="none" stroke="#fff" stroke-linecap="round" stroke-linejoin="round" stroke-miterlimit="2.613" stroke-width=".978" d="M15.183 4.018c-1.819-.181-3.467-.643-4.542-1.936m14.498 4.397c-.848-1.503-2.459-2.01-4.338-2.2M9.456 3.75c.216.993.905 2.262 2.193 2.799M7.155 5.819c.114.881 1.132 2.693 2.039 3.17M21.766 7.754c.937-.036 2.861.578 3.531 1.938" style="stroke:var(--color1, #fff)"/>
      <path fill="none" stroke="#fff" stroke-linecap="round" stroke-linejoin="round" stroke-miterlimit="22.926" stroke-width=".978" d="M18.86 11.022h.805c1.329 0 2.416 1.087 2.416 2.416s-1.087 2.416-2.416 2.416a2.423 2.423 0 0 1-2.416-2.416v-.805c0-.886.725-1.61 1.61-1.61zM13.139 11.022h-.805c-1.329 0-2.416 1.087-2.416 2.416s1.087 2.416 2.416 2.416a2.423 2.423 0 0 0 2.416-2.416v-.805c0-.886-.725-1.61-1.61-1.61z" style="stroke:var(--color1, #fff)"/>
      <path fill="none" stroke="#fff" stroke-linecap="round" stroke-linejoin="round" stroke-miterlimit="22.926" stroke-width=".978" d="M14.75 12.632a2.504 2.504 0 0 1 2.5 0" style="stroke:var(--color1, #fff)"/>
      <path fill="none" stroke="#fff" stroke-linecap="round" stroke-linejoin="round" stroke-miterlimit="2.613" stroke-width=".978" d="M17.32 17.438a2.638 2.638 0 0 1-2.64 0M5.058 27.262c-.574.579-.933 1.311-.933 2.238v1.875h23.75V29.5c0-2.063-1.774-3.159-3.75-3.75l-3.572-1.069-2.053-1.239v-1.684m-5 0v1.684l-2.053 1.239-3.572 1.069-.084.025" style="stroke:var(--color1, #fff)"/>
      <path fill="none" stroke="#fff" stroke-linecap="round" stroke-linejoin="round" stroke-miterlimit="2.613" stroke-width=".978" d="M18.474 24.111a2.893 2.893 0 0 1-2.474 1.4 2.887 2.887 0 0 1-2.474-1.4M13.5 23.442l.99 7.815M18.5 23.442l-.989 7.808M11.447 24.681c-.25 1.904.063 5.105.438 6.602M20.552 24.681c.25 1.904-.063 5.105-.438 6.602" style="stroke:var(--color1, #fff)"/>
      <path fill="none" stroke="#fff" stroke-linecap="round" stroke-linejoin="round" stroke-miterlimit="22.926" stroke-width=".978" d="m26.312 18.607 1.054 1.787 1.758 1.026-1.787 1.054-1.026 1.758-1.054-1.787-1.758-1.026 1.787-1.054 1.026-1.758zM7.08 6.319l-1.22.72-.798 1.368-.82-1.39-1.368-.798 1.39-.82.798-1.368.82 1.39 1.224.714M6.537 24.085l.937 1.588 1.563.912-1.588.937-.912 1.563-.937-1.588-1.563-.912 1.588-.937.912-1.563z" style="stroke:var(--color1, #fff)"/>
      <path fill="none" stroke="#fff" stroke-linecap="round" stroke-linejoin="round" stroke-miterlimit="2.613" stroke-width=".978" d="M17.992 4.149h.001" style="stroke:var(--color1, #fff)"/>
    </symbol>
    <symbol id="icon-businessman" viewBox="0 0 32 32">
      <path fill="#fff" d="M18.802 24.769a.648.648 0 0 1-.553-.318.646.646 0 0 1-.004-.637l1.998-3.533a.643.643 0 0 1 1.061-.08.642.642 0 0 1 .053.709l-1.998 3.533a.634.634 0 0 1-.558.326zm-5.702 0a.641.641 0 0 1-.558-.325l-1.946-3.44a.64.64 0 0 1 1.114-.629l1.946 3.44a.636.636 0 0 1-.004.637.638.638 0 0 1-.552.318zm3.186-18.223a.641.641 0 0 1-.272-1.221c.95-.447 1.857-.979 2.71-1.592a.636.636 0 0 1 .712-.023.648.648 0 0 1 .286.399.638.638 0 0 1-.251.667 18.447 18.447 0 0 1-2.913 1.711.638.638 0 0 1-.271.061z" style="fill:var(--color1, #fff)"/>
      <path fill="#fff" d="M21.691 7.58a7.357 7.357 0 0 1-4.747-1.732.631.631 0 0 1-.227-.435.65.65 0 0 1 .148-.467.631.631 0 0 1 .435-.227.65.65 0 0 1 .467.148A6.065 6.065 0 0 0 22.1 6.285a.645.645 0 0 1 .68.597.64.64 0 0 1-.598.681c-.164.01-.328.016-.492.016z" style="fill:var(--color1, #fff)"/>
      <path fill="#fff" d="M9.775 8.177a.637.637 0 0 1-.643-.619.637.637 0 0 1 .6-.661l.914-.063a16.88 16.88 0 0 0 5.368-1.509.64.64 0 0 1 .546 1.16c-1.83.861-3.79 1.41-5.8 1.626l-.939.065a.706.706 0 0 1-.045.001zm12.366-.612a.643.643 0 0 1-.641-.641v-.877a.643.643 0 0 1 1.094-.453c.12.121.188.283.188.453v.877a.643.643 0 0 1-.641.641z" style="fill:var(--color1, #fff)"/>
      <path fill="#fff" d="M9.761 7.565a.643.643 0 0 1-.641-.641v-.877a.643.643 0 0 1 1.094-.453c.12.12.188.283.188.453v.877a.643.643 0 0 1-.641.641z" style="fill:var(--color1, #fff)"/>
      <path fill="#fff" d="M16.011 16.449c-1.64 0-3.288-.797-4.544-2.303C9.586 11.89 9.152 8.979 9.12 6.934a.646.646 0 0 1 .181-.456c.058-.06.128-.109.206-.142a.664.664 0 0 1 .491-.011.625.625 0 0 1 .353.342c.033.078.05.161.05.246.029 1.838.408 4.443 2.049 6.412 1.176 1.409 3.33 2.593 5.524 1.293 3.19-1.888 3.506-6.375 3.527-7.705a.64.64 0 1 1 1.28.021c-.063 3.999-1.615 7.283-4.154 8.787a5.102 5.102 0 0 1-2.617.727z" style="fill:var(--color1, #fff)"/>
      <path fill="#fff" d="M22.141 6.689h-.005a.647.647 0 0 1-.589-.4.663.663 0 0 1-.047-.245 4.687 4.687 0 0 0-4.013-4.661.646.646 0 0 1-.523-.721.64.64 0 0 1 .703-.548 5.971 5.971 0 0 1 5.113 5.939.64.64 0 0 1-.64.636z" style="fill:var(--color1, #fff)"/>
      <path fill="#fff" d="M17.579 1.389c-.028 0-.056-.003-.085-.006a11.722 11.722 0 0 0-3.086 0 .643.643 0 0 1-.705-.552.642.642 0 0 1 .536-.717 12.997 12.997 0 0 1 3.424 0 .639.639 0 0 1 .356 1.103.64.64 0 0 1-.44.172z" style="fill:var(--color1, #fff)"/>
      <path fill="#fff" d="M9.761 6.688a.64.64 0 0 1-.64-.635A5.97 5.97 0 0 1 14.234.114a.646.646 0 0 1 .703.548.639.639 0 0 1-.523.721 4.688 4.688 0 0 0-4.013 4.661.648.648 0 0 1-.391.594.667.667 0 0 1-.245.051l-.005-.001zM2.329 27.604l-.038-.001a.638.638 0 0 1-.601-.678 74.25 74.25 0 0 1 .325-3.828.642.642 0 0 1 .706-.566c.352.04.604.357.566.707A73.936 73.936 0 0 0 2.967 27a.644.644 0 0 1-.638.604zm27.244 0a.641.641 0 0 1-.639-.603 74.131 74.131 0 0 0-.32-3.762.637.637 0 0 1 .566-.707.637.637 0 0 1 .707.566 74.25 74.25 0 0 1 .325 3.828.638.638 0 0 1-.601.677h-.038zm-16.474-2.835a.639.639 0 0 1-.624-.784.639.639 0 0 1 .189-.327l2.852-2.636a.65.65 0 0 1 .461-.175.629.629 0 0 1 .449.206.625.625 0 0 1 .169.464c-.004.085-.024.168-.061.244s-.087.145-.15.202l-2.852 2.636a.642.642 0 0 1-.435.17zm-3.351-5.923a.636.636 0 0 1-.565-.342.634.634 0 0 1 .038-.66l.984-1.438a.641.641 0 0 1 1.056.722l-.984 1.438a.638.638 0 0 1-.529.279zm12.406 0a.636.636 0 0 1-.529-.279l-.984-1.438a.643.643 0 0 1 .397-.989.65.65 0 0 1 .661.265l.984 1.438a.634.634 0 0 1 .038.661.638.638 0 0 1-.567.342z" style="fill:var(--color1, #fff)"/>
      <path fill="#fff" d="M18.803 24.769a.642.642 0 0 1-.435-.17l-2.852-2.636a.634.634 0 0 1-.211-.446.64.64 0 0 1 1.079-.495l2.852 2.636a.642.642 0 0 1-.434 1.111z" style="fill:var(--color1, #fff)"/>
      <path fill="#fff" d="M15.951 22.133a.643.643 0 0 1-.624-.789.636.636 0 0 1 .194-.326l5.218-4.723a.636.636 0 0 1 .466-.176.64.64 0 0 1 .394 1.125l-5.218 4.723a.638.638 0 0 1-.43.166z" style="fill:var(--color1, #fff)"/>
      <path fill="#fff" d="M15.951 22.133a.64.64 0 0 1-.43-.166l-5.218-4.723a.645.645 0 0 1-.222-.445.637.637 0 0 1 .369-.621.635.635 0 0 1 .498-.018c.08.03.153.076.215.135l5.218 4.723a.64.64 0 0 1-.43 1.115zm9.125-2.745a.664.664 0 0 1-.118-.01l-2.922-.543a.64.64 0 1 1 .234-1.26l2.922.543a.638.638 0 0 1 .315 1.101.637.637 0 0 1-.431.168zm-18.25 0a.639.639 0 0 1-.14-1.263 39.88 39.88 0 0 1 2.97-.551.645.645 0 0 1 .644.305.64.64 0 0 1-.222.88.62.62 0 0 1-.235.084c-.965.143-1.924.321-2.876.534a.74.74 0 0 1-.141.014z" style="fill:var(--color1, #fff)"/>
      <path fill="#fff" d="M2.651 23.809a.643.643 0 0 1-.615-.457.637.637 0 0 1-.02-.271 5.873 5.873 0 0 1 4.687-4.961.638.638 0 0 1 .657.274.65.65 0 0 1 .094.481.644.644 0 0 1-.504.502c-.939.185-1.796.658-2.454 1.353s-1.081 1.579-1.212 2.526a.639.639 0 0 1-.632.552zm26.6 0a.64.64 0 0 1-.633-.552 4.592 4.592 0 0 0-3.665-3.879.638.638 0 0 1-.505-.751.638.638 0 0 1 .751-.505 5.876 5.876 0 0 1 4.687 4.961.637.637 0 0 1-.634.728zm-11.242 8.139a.64.64 0 0 1-.637-.584l-.764-8.618a.639.639 0 0 1 1.275-.113l.764 8.618a.65.65 0 0 1-.147.467.646.646 0 0 1-.435.227c-.019.003-.038.003-.057.003zm-4.116 0c-.019 0-.038 0-.057-.003a.633.633 0 0 1-.435-.227.634.634 0 0 1-.147-.467l.764-8.618a.633.633 0 0 1 .226-.435.634.634 0 0 1 .467-.147.638.638 0 0 1 .582.694l-.764 8.618a.64.64 0 0 1-.637.584zM3.497 29.486a.649.649 0 0 1-.25-.05 2.568 2.568 0 0 1-1.559-2.51.634.634 0 0 1 .677-.601.625.625 0 0 1 .567.43c.027.08.039.164.034.248a1.285 1.285 0 0 0 .779 1.254c.135.058.246.161.315.291s.09.28.06.424a.645.645 0 0 1-.624.513z" style="fill:var(--color1, #fff)"/>
      <path fill="#fff" d="M15.951 32a32.61 32.61 0 0 1-12.704-2.564.643.643 0 0 1-.34-.839.643.643 0 0 1 .839-.34c7.756 3.284 16.654 3.284 24.41 0a.64.64 0 1 1 .499 1.179A32.65 32.65 0 0 1 15.95 32z" style="fill:var(--color1, #fff)"/>
      <path fill="#fff" d="M28.405 29.486a.645.645 0 0 1-.626-.513.638.638 0 0 1 .377-.716 1.277 1.277 0 0 0 .779-1.254.641.641 0 0 1 1.279-.077 2.565 2.565 0 0 1-1.559 2.51.627.627 0 0 1-.249.051z" style="fill:var(--color1, #fff)"/>
    </symbol>
    <symbol id="icon-form-arrow-right" viewBox="0 0 32 32">
      <path fill="#fff" d="M1.143 14.857a1.143 1.143 0 0 0 0 2.286v-2.286zm29.951 1.951a1.143 1.143 0 0 0 0-1.616l-7.273-7.273a1.143 1.143 0 0 0-1.616 1.616L28.67 16l-6.465 6.465a1.143 1.143 0 0 0 1.616 1.616l7.273-7.273zm-29.951.335h29.143v-2.286H1.143v2.286z" style="fill:var(--color1, #fff)"/>
    </symbol>
    <symbol id="icon-triangle-right" viewBox="0 0 32 32">
      <path d="M28.632 16 3.369 1.414v29.171l25.263-14.586z"/>
    </symbol>
    <symbol id="icon-triangle-left" viewBox="0 0 32 32">
      <path d="M2.667 16 29.334.604v30.792L2.667 16z"/>
    </symbol>
    <symbol id="icon-star" viewBox="0 0 32 32">
      <path fill="#fff" d="m16 0 1.582 10.097L24 2.144l-3.679 9.535L29.856 8l-7.953 6.418L32 16l-10.097 1.582L29.856 24l-9.535-3.679L24 29.856l-6.418-7.953L16 32l-1.582-10.097L8 29.856l3.679-9.535L2.144 24l7.953-6.418L0 16l10.097-1.582L2.144 8l9.535 3.679L8 2.144l6.418 7.953L16 0z" style="fill:var(--color1, #fff)"/>
    </symbol>
    <symbol id="icon-arrow-down" viewBox="0 0 32 32">
      <path fill="#bbb" d="M14.586 23.414a2 2 0 0 0 2.828 0l12.728-12.728a2 2 0 1 0-2.828-2.828L16 19.172 4.686 7.858a2 2 0 1 0-2.828 2.828l12.728 12.728zM14 18v4h4v-4h-4z" style="fill:var(--color2, #bbb)"/>
    </symbol>
    <symbol id="icon-burger" viewBox="0 0 40 32">
      <path fill="none" stroke="#fff" style="stroke: var(--color1, #fff)" stroke-linejoin="miter" stroke-linecap="butt" stroke-miterlimit="4" stroke-width="4" d="M0 2.667h40"></path>
      <path fill="none" stroke="#fff" style="stroke: var(--color1, #fff)" stroke-linejoin="miter" stroke-linecap="butt" stroke-miterlimit="4" stroke-width="4" d="M0 16h40"></path>
      <path fill="none" stroke="#fff" style="stroke: var(--color1, #fff)" stroke-linejoin="miter" stroke-linecap="butt" stroke-miterlimit="4" stroke-width="4" d="M0 29.333h40"></path>
    </symbol>
    <symbol id="icon-cross" viewBox="0 0 32 32">
      <path fill="none" stroke="#fff" style="stroke: var(--color1, #fff)" stroke-linejoin="miter" stroke-linecap="butt" stroke-miterlimit="4" stroke-width="2.1818" d="M8.286 8.286l15.428 15.428"></path>
      <path fill="none" stroke="#fff" style="stroke: var(--color1, #fff)" stroke-linejoin="miter" stroke-linecap="butt" stroke-miterlimit="4" stroke-width="2.1818" d="M23.714 8.286l-15.428 15.428"></path>
    </symbol>
    <symbol id="icon-arrow-down-mobile" viewBox="0 0 57 32">
      <path fill="#fff" style="fill: var(--color1, #fff)" d="M25.93 30.959c1.389 1.388 3.64 1.388 5.028 0l22.628-22.627c1.388-1.389 1.388-3.64 0-5.028s-3.64-1.389-5.028 0l-20.113 20.113-20.113-20.113c-1.389-1.389-3.64-1.389-5.028 0s-1.389 3.64 0 5.028l22.627 22.627zM24.889 24.889v3.556h7.111v-3.556h-7.111z"></path>
    </symbol>
  </defs>
</svg>
